#tb 0: 1/25
0,          0,          0,        1,   152064, 0xf9deb95a
0,          1,          1,        1,   152064, 0xdce9c541
0,          2,          2,        1,   152064, 0xc45a8a77
0,          3,          3,        1,   152064, 0x5132a470
0,          4,          4,        1,   152064, 0x65542c98
0,          5,          5,        1,   152064, 0x2df95883
0,          6,          6,        1,   152064, 0x9f4f1280
0,          7,          7,        1,   152064, 0x11c9f32c
0,          8,          8,        1,   152064, 0x66535f0c
0,          9,          9,        1,   152064, 0x5b13770c
0,         10,         10,        1,   152064, 0xadcd3278
0,         11,         11,        1,   152064, 0x06e00e91
0,         12,         12,        1,   152064, 0x1fa1886f
0,         13,         13,        1,   152064, 0xd524b6a3
0,         14,         14,        1,   152064, 0x45f82b73
0,         15,         15,        1,   152064, 0x0fd301aa
0,         16,         16,        1,   152064, 0x2983acdd
0,         17,         17,        1,   152064, 0xe74004c6
0,         18,         18,        1,   152064, 0xe279328a
0,         19,         19,        1,   152064, 0x85be8f85
0,         20,         20,        1,   152064, 0xec503b6b
0,         21,         21,        1,   152064, 0x3d4495db
0,         22,         22,        1,   152064, 0x3a9774d2
0,         23,         23,        1,   152064, 0x80a07a42
0,         24,         24,        1,   152064, 0x484427ce
0,         25,         25,        1,   152064, 0x9e6b773f
0,         26,         26,        1,   152064, 0xd3be5f07
0,         27,         27,        1,   152064, 0x69a76c5e
0,         28,         28,        1,   152064, 0xd448fde2
0,         29,         29,        1,   152064, 0x04a34635
0,         30,         30,        1,   152064, 0xd4e3e0e1
0,         31,         31,        1,   152064, 0x2564cf13
0,         32,         32,        1,   152064, 0x98bc5167
0,         33,         33,        1,   152064, 0xcf06991f
0,         34,         34,        1,   152064, 0x3edf621f
0,         35,         35,        1,   152064, 0x47039967
0,         36,         36,        1,   152064, 0x299636b5
0,         37,         37,        1,   152064, 0x2bc0849d
0,         38,         38,        1,   152064, 0xe94946a6
0,         39,         39,        1,   152064, 0x5a5768ac
0,         40,         40,        1,   152064, 0xfe4ce9cd
0,         41,         41,        1,   152064, 0xbeb34b2e
0,         42,         42,        1,   152064, 0xa26020e3
0,         43,         43,        1,   152064, 0xb2514c55
0,         44,         44,        1,   152064, 0x723be4b1
0,         45,         45,        1,   152064, 0xeef4434e
0,         46,         46,        1,   152064, 0x1237e1db
0,         47,         47,        1,   152064, 0x4814c1fb
0,         48,         48,        1,   152064, 0xe7544446
0,         49,         49,        1,   152064, 0xd93a53d9
0,         50,         50,        1,   152064, 0x90e029c6
0,         51,         51,        1,   152064, 0xfa493dfc
0,         52,         52,        1,   152064, 0x081fa2d9
0,         53,         53,        1,   152064, 0x9782ef8c
0,         54,         54,        1,   152064, 0x1daf911c
0,         55,         55,        1,   152064, 0xc9058a57
0,         56,         56,        1,   152064, 0x68a90f04
0,         57,         57,        1,   152064, 0xc7115091
0,         58,         58,        1,   152064, 0xe9731898
0,         59,         59,        1,   152064, 0xd7bc206e
0,         60,         60,        1,   152064, 0xf760baac
0,         61,         61,        1,   152064, 0x6f9700e3
0,         62,         62,        1,   152064, 0xec54b42d
0,         63,         63,        1,   152064, 0x0dc5bf77
0,         64,         64,        1,   152064, 0x196e33c3
0,         65,         65,        1,   152064, 0x090cae46
0,         66,         66,        1,   152064, 0x06897499
0,         67,         67,        1,   152064, 0xf54cd959
0,         68,         68,        1,   152064, 0x24167906
0,         69,         69,        1,   152064, 0xea06e67b
0,         70,         70,        1,   152064, 0xa97ed69c
0,         71,         71,        1,   152064, 0x03c4ce82
0,         72,         72,        1,   152064, 0xca864ddd
0,         73,         73,        1,   152064, 0x1bc9956f
0,         74,         74,        1,   152064, 0x7864908c
0,         75,         75,        1,   152064, 0x52f3be55
0,         76,         76,        1,   152064, 0x78b469b5
0,         77,         77,        1,   152064, 0x8b3bb23e
0,         78,         78,        1,   152064, 0x5bed7f47
0,         79,         79,        1,   152064, 0x401b7e9c
0,         80,         80,        1,   152064, 0x4cbc3193
0,         81,         81,        1,   152064, 0xa00b7ed2
0,         82,         82,        1,   152064, 0xda548927
0,         83,         83,        1,   152064, 0x30a5cffb
0,         84,         84,        1,   152064, 0x9536bdf0
0,         85,         85,        1,   152064, 0x927e3cf4
0,         86,         86,        1,   152064, 0x95533148
0,         87,         87,        1,   152064, 0x763c553a
0,         88,         88,        1,   152064, 0x7010f280
0,         89,         89,        1,   152064, 0xa537667c
0,         90,         90,        1,   152064, 0xe599927a
0,         91,         91,        1,   152064, 0x72dde2ab
0,         92,         92,        1,   152064, 0x02089d51
0,         93,         93,        1,   152064, 0x4ca8231a
0,         94,         94,        1,   152064, 0x90b126aa
0,         95,         95,        1,   152064, 0x65a9260f
0,         96,         96,        1,   152064, 0xf37cf34a
0,         97,         97,        1,   152064, 0xf21f63f6
0,         98,         98,        1,   152064, 0x95209e85
0,         99,         99,        1,   152064, 0x0df00a65
0,        100,        100,        1,   152064, 0x0ce71e2b
0,        101,        101,        1,   152064, 0x6cbf8843
0,        102,        102,        1,   152064, 0x17f29296
0,        103,        103,        1,   152064, 0x88278aa9
0,        104,        104,        1,   152064, 0x84ad74d0
0,        105,        105,        1,   152064, 0xda48eea1
0,        106,        106,        1,   152064, 0xcaf33b25
0,        107,        107,        1,   152064, 0x9b288538
0,        108,        108,        1,   152064, 0xd1b7561f
0,        109,        109,        1,   152064, 0x4bfcbdac
0,        110,        110,        1,   152064, 0x1dd5b920
0,        111,        111,        1,   152064, 0xde50ceeb
0,        112,        112,        1,   152064, 0xa552963b
0,        113,        113,        1,   152064, 0xb2f5ef15
0,        114,        114,        1,   152064, 0x5abf061c
0,        115,        115,        1,   152064, 0x9b4c45f6
0,        116,        116,        1,   152064, 0xe61d1b02
0,        117,        117,        1,   152064, 0xe5728c4e
0,        118,        118,        1,   152064, 0xcb944655
0,        119,        119,        1,   152064, 0x648b951a
0,        120,        120,        1,   152064, 0xc3671a38
0,        121,        121,        1,   152064, 0x7d3fbcf3
0,        122,        122,        1,   152064, 0x3c0ba1c5
0,        123,        123,        1,   152064, 0xf5ac0d3a
0,        124,        124,        1,   152064, 0x87faf534
0,        125,        125,        1,   152064, 0xb3f05d11
0,        126,        126,        1,   152064, 0x825e3423
0,        127,        127,        1,   152064, 0xade45431
0,        128,        128,        1,   152064, 0x7715d496
0,        129,        129,        1,   152064, 0x983c45fa
0,        130,        130,        1,   152064, 0xe8d621d8
0,        131,        131,        1,   152064, 0x71ec7553
0,        132,        132,        1,   152064, 0xb20d5556
0,        133,        133,        1,   152064, 0xfa6bd00b
0,        134,        134,        1,   152064, 0x2a18acf1
0,        135,        135,        1,   152064, 0xa241c342
0,        136,        136,        1,   152064, 0xa3597426
0,        137,        137,        1,   152064, 0x6f72ff61
0,        138,        138,        1,   152064, 0xceffe8af
0,        139,        139,        1,   152064, 0x76853b09
0,        140,        140,        1,   152064, 0x3f58cc0c
0,        141,        141,        1,   152064, 0x16080a6d
0,        142,        142,        1,   152064, 0x752ae0aa
0,        143,        143,        1,   152064, 0x7dadf81b
0,        144,        144,        1,   152064, 0x9828aa7c
0,        145,        145,        1,   152064, 0x05a51e04
0,        146,        146,        1,   152064, 0xf9a92ae6
0,        147,        147,        1,   152064, 0xce0169f9
0,        148,        148,        1,   152064, 0x784d405b
0,        149,        149,        1,   152064, 0x531b9869
0,        150,        150,        1,   152064, 0xdf6a6129
0,        151,        151,        1,   152064, 0x5cdf5aac
0,        152,        152,        1,   152064, 0x28dd0050
0,        153,        153,        1,   152064, 0x76bd5ea7
0,        154,        154,        1,   152064, 0xcf3036bf
0,        155,        155,        1,   152064, 0x20365c0d
0,        156,        156,        1,   152064, 0x171ad303
0,        157,        157,        1,   152064, 0x1388416d
0,        158,        158,        1,   152064, 0x9b92f171
0,        159,        159,        1,   152064, 0xe2bc377a
0,        160,        160,        1,   152064, 0x90639e6c
0,        161,        161,        1,   152064, 0x1b50e759
0,        162,        162,        1,   152064, 0x43a9b680
0,        163,        163,        1,   152064, 0xb1780015
0,        164,        164,        1,   152064, 0x9a6783a6
0,        165,        165,        1,   152064, 0x1471e2e4
0,        166,        166,        1,   152064, 0xb1899be2
0,        167,        167,        1,   152064, 0x2facd37c
0,        168,        168,        1,   152064, 0x197361fc
0,        169,        169,        1,   152064, 0x823ffce1
0,        170,        170,        1,   152064, 0x9ce3cb14
0,        171,        171,        1,   152064, 0x16620232
0,        172,        172,        1,   152064, 0x4fedb29e
0,        173,        173,        1,   152064, 0xb45cd8b4
0,        174,        174,        1,   152064, 0x84387e9d
0,        175,        175,        1,   152064, 0xd5017ca0
0,        176,        176,        1,   152064, 0x106002a5
0,        177,        177,        1,   152064, 0x20c44a82
0,        178,        178,        1,   152064, 0x0694fbb2
0,        179,        179,        1,   152064, 0x849cfdf3
0,        180,        180,        1,   152064, 0xef827c85
0,        181,        181,        1,   152064, 0xc04ecde3
0,        182,        182,        1,   152064, 0x2f81bee2
0,        183,        183,        1,   152064, 0x86dbe8cc
0,        184,        184,        1,   152064, 0x9ee67bcd
0,        185,        185,        1,   152064, 0xa2618f39
0,        186,        186,        1,   152064, 0x35a40f36
0,        187,        187,        1,   152064, 0x9f6b0b54
0,        188,        188,        1,   152064, 0xcee2c0b5
0,        189,        189,        1,   152064, 0x3c3cb8f3
0,        190,        190,        1,   152064, 0xf3ab2e21
0,        191,        191,        1,   152064, 0xc51afcbc
0,        192,        192,        1,   152064, 0x272bbb4d
0,        193,        193,        1,   152064, 0x1448f2cc
0,        194,        194,        1,   152064, 0xd286e217
0,        195,        195,        1,   152064, 0xd6abf89e
0,        196,        196,        1,   152064, 0xf908bb8a
0,        197,        197,        1,   152064, 0x8a17ddd6
0,        198,        198,        1,   152064, 0xc30d9039
0,        199,        199,        1,   152064, 0xb8c6a557
0,        200,        200,        1,   152064, 0xf1675620
0,        201,        201,        1,   152064, 0xbb41b898
0,        202,        202,        1,   152064, 0x662298b2
0,        203,        203,        1,   152064, 0x0f8271aa
0,        204,        204,        1,   152064, 0x34d90197
0,        205,        205,        1,   152064, 0x15254eb2
0,        206,        206,        1,   152064, 0x4d942235
0,        207,        207,        1,   152064, 0xa2cefa6a
0,        208,        208,        1,   152064, 0x909a7050
0,        209,        209,        1,   152064, 0x219abae7
0,        210,        210,        1,   152064, 0x0166bc37
0,        211,        211,        1,   152064, 0x8b960965
0,        212,        212,        1,   152064, 0x71f6af2a
0,        213,        213,        1,   152064, 0x8d69f377
0,        214,        214,        1,   152064, 0x27b1a17d
0,        215,        215,        1,   152064, 0x6b09b049
0,        216,        216,        1,   152064, 0x733472e7
0,        217,        217,        1,   152064, 0x986efe32
0,        218,        218,        1,   152064, 0x99a37cc5
0,        219,        219,        1,   152064, 0x82433283
0,        220,        220,        1,   152064, 0x4698c0bd
0,        221,        221,        1,   152064, 0x1f6ce7f9
0,        222,        222,        1,   152064, 0x6e398d44
0,        223,        223,        1,   152064, 0x14ae5d85
0,        224,        224,        1,   152064, 0xef2f1e28
0,        225,        225,        1,   152064, 0x9dfe46ae
0,        226,        226,        1,   152064, 0x91997a8f
0,        227,        227,        1,   152064, 0x6c828dda
0,        228,        228,        1,   152064, 0x723f3f5c
0,        229,        229,        1,   152064, 0xcb86883d
0,        230,        230,        1,   152064, 0x1c25cbed
0,        231,        231,        1,   152064, 0x3cad814a
0,        232,        232,        1,   152064, 0xe0d8f5e7
0,        233,        233,        1,   152064, 0xaefb35cc
0,        234,        234,        1,   152064, 0x5dfc2181
0,        235,        235,        1,   152064, 0x13f26603
0,        236,        236,        1,   152064, 0x97a3dd0d
0,        237,        237,        1,   152064, 0xbecff890
0,        238,        238,        1,   152064, 0xd226badc
0,        239,        239,        1,   152064, 0x7f4adbd1
0,        240,        240,        1,   152064, 0x5da1565a
0,        241,        241,        1,   152064, 0x35cbac9c
0,        242,        242,        1,   152064, 0xf1b26f8a
0,        243,        243,        1,   152064, 0xc8d08d07
0,        244,        244,        1,   152064, 0xa9f643c2
0,        245,        245,        1,   152064, 0xc420b0ba
0,        246,        246,        1,   152064, 0x8871a4f5
0,        247,        247,        1,   152064, 0x4e7647b4
0,        248,        248,        1,   152064, 0xb4dad812
0,        249,        249,        1,   152064, 0x6a3d00d5
